Coordinates
version=1
nRows=20
nColumns=34
inDegrees=yes

Units are S.I. units (second, meters, Newtons, ...)
If the header above contains a line with 'inDegrees', this indicates whether rotational values are in degrees (yes) or radians (no).

endheader
time	pelvis_tilt	pelvis_list	pelvis_rotation	pelvis_tx	pelvis_ty	pelvis_tz	hip_flexion_r	hip_adduction_r	hip_rotation_r	knee_angle_r	ankle_angle_r	subtalar_angle_r	mtp_angle_r	hip_flexion_l	hip_adduction_l	hip_rotation_l	knee_angle_l	ankle_angle_l	subtalar_angle_l	mtp_angle_l	lumbar_extension	lumbar_bending	lumbar_rotation	arm_flex_r	arm_add_r	arm_rot_r	elbow_flex_r	pro_sup_r	arm_flex_l	arm_add_l	arm_rot_l	elbow_flex_l	pro_sup_l
      0.00000000	      6.96909373	     -6.51770083	     -6.96005676	     -4.20990477	      1.01623849	     -0.09479264	     -5.72753311	      4.03376874	     -6.60619951	     14.95764196	      6.01381823	    -20.56412398	      0.00000000	     -7.86904647	     -3.17719990	      1.24848387	      8.87615117	     11.27824083	    -13.51959203	      0.00000000	     -6.25055169	      3.23551387	     -1.67942505	     44.71552310	     -3.45674362	     21.44853517	    139.83598767	    103.96188275	      4.71515748	     -0.50541337	      7.89310339	     21.55680761	     52.31219627
      0.01666670	      6.40637787	     -4.03910471	     -6.98490509	     -4.20798055	      1.01729904	     -0.09434808	     -4.47276327	      2.27529814	     -5.39376120	     15.06342047	      8.64506348	    -20.49050466	      0.00000000	     -6.41544162	     -0.10061208	      1.73484997	      9.03422024	     10.57180091	    -14.91396591	      0.00000000	     -5.21617718	      0.95042600	      0.07971203	     43.95533389	     -1.65036301	     18.62546846	    146.32786060	    102.51986750	      5.56543441	     -0.16882738	      2.73690880	     18.43077968	     52.24119412
      0.03333330	      6.01704994	     -2.30323707	     -7.27581113	     -4.20711730	      1.01687128	     -0.09308013	     -4.31433387	      0.51977524	     -5.65983054	     13.75869046	      9.34296306	    -18.36180309	      0.00000000	     -6.41533449	      1.82842127	      0.89883874	      8.00762289	     10.33849977	    -13.89281511	      0.00000000	     -4.25289394	     -1.16844870	      0.98452227	     43.98261522	     -0.39147925	     16.94285085	    147.59647167	    100.38739805	      5.15633909	     -0.45447097	     -5.61706031	     18.49706829	     53.68226164
      0.05000000	      6.25547389	     -1.77478168	     -7.12165837	     -4.20615151	      1.01809172	     -0.09322140	     -4.72702417	     -0.13031271	     -5.30922976	     13.37300344	      9.55159175	    -17.90294676	      0.00000000	     -7.27032018	      2.56747355	      0.97364928	      6.97929115	      9.51364938	    -13.79065530	      0.00000000	     -4.64994735	     -1.78223291	      1.82445907	     43.74957369	     -0.20486538	     16.62754508	    148.67144182	    100.34052183	      5.57290084	     -0.93169469	     -5.62464997	     18.91574729	     54.30457310
      0.06666670	      6.53889361	     -1.63020356	     -6.92675302	     -4.20445574	      1.01997151	     -0.09372409	     -5.39328437	     -0.23119514	     -5.01110491	     12.78346289	      9.80334286	    -17.02560027	      0.00000000	     -8.08247824	      2.84059318	      1.18988994	      6.10055404	      8.97674351	    -13.66633276	      0.00000000	     -5.10893463	     -2.06831505	      2.46955159	     43.49717225	     -0.45189300	     15.37919396	    149.45416487	    100.29030960	      6.24847559	     -0.95219324	     -5.11470274	     18.78920219	     55.20395413
      0.08333330	      6.39502919	     -1.65255422	     -6.65356353	     -4.20284286	      1.02118796	     -0.09461525	     -5.42412762	     -0.08809801	     -4.60709149	     12.53986271	      9.86721380	    -16.81855533	      0.00000000	     -8.02477678	      2.81385029	      1.39377002	      5.93921933	      8.69669591	    -13.43866413	      0.00000000	     -5.14105402	     -2.00038390	      2.44895589	     43.44483646	     -0.43366271	     15.26887484	    149.49077633	    100.28140847	      6.61556522	     -0.90871462	     -5.02448066	     18.84696641	     55.29280356
      0.10000000	      6.53958746	     -1.80284308	     -6.48680470	     -4.20190778	      1.02338925	     -0.09565048	     -5.97288039	      0.10357124	     -4.41553473	     11.92942769	      9.80759044	    -16.33572124	      0.00000000	     -8.35984899	      2.68606781	      1.39012032	      5.66639483	      8.17711630	    -13.31124515	      0.00000000	     -5.41044084	     -1.85755106	      2.74640472	     43.05824827	     -0.74329578	     14.30859728	    150.00035077	    100.17231397	      7.26310315	     -0.81140723	     -4.20202415	     18.35669646	     55.84951538
      0.11666670	      6.51604926	     -1.84288141	     -6.34478649	     -4.20212909	      1.02434718	     -0.09667828	     -5.95726293	      0.16234008	     -4.16831058	     11.96807184	      9.76356166	    -16.20373922	      0.00000000	     -8.18760891	      2.66227808	      1.52468480	      5.90217669	      7.96974036	    -13.17439244	      0.00000000	     -5.55545189	     -1.84051867	      2.66021136	     42.97031107	     -0.79171053	     14.25665420	    149.98318553	    100.15776502	      7.58430456	     -0.78030094	     -4.08224953	     18.38731027	     55.91105357
      0.13333330	      6.50405517	     -1.84579363	     -6.25610983	     -4.20253491	      1.02386602	     -0.09762558	     -5.96273558	      0.14460620	     -4.08459396	     11.96036460	      9.73598154	    -16.15861897	      0.00000000	     -8.06905057	      2.67774656	      1.52073072	      6.00696611	      7.86467055	    -13.13901250	      0.00000000	     -5.65883924	     -1.73674533	      2.60971161	     42.89487824	     -0.85700167	     14.23341612	    149.98477173	    100.14999843	      7.68805745	     -0.79845768	     -4.02690916	     18.38925448	     55.93435210
      0.15000000	      6.50875185	     -1.92846006	     -6.15068634	     -4.20338912	      1.02185912	     -0.09877881	     -5.93222368	      0.21637453	     -3.99466789	     11.99934898	      9.67155513	    -16.11061795	      0.00000000	     -7.78229113	      2.58983211	      1.50743935	      6.43034009	      7.61261523	    -13.11513511	      0.00000000	     -5.80475651	     -1.71971905	      2.54507638	     42.83048606	     -1.05745304	     14.17472926	    150.00035077	    100.11978082	      7.85780672	     -0.83018241	     -3.79815281	     18.37503560	     56.01241710
      0.16666670	      6.52120926	     -1.96339712	     -6.14744946	     -4.20361371	      1.01947191	     -0.10004165	     -5.94523729	      0.19637594	     -3.99178250	     12.01151433	      9.67082246	    -16.11135286	      0.00000000	     -7.76287147	      2.59239895	      1.50347447	      6.42790810	      7.61105427	    -13.11849600	      0.00000000	     -5.79829225	     -1.72388496	      2.54640966	     42.83342628	     -1.05956079	     14.17388627	    150.00035077	    100.11905403	      7.86051950	     -0.83737574	     -3.79294286	     18.37544071	     56.01415008
      0.18333330	      5.96584253	     -1.90445087	     -6.00231384	     -4.20359641	      1.01794027	     -0.10178786	     -4.97258388	      0.11200839	     -3.98017165	     12.69193299	      9.22602339	    -16.74657899	      0.00000000	     -6.82248242	      2.67178581	      2.17779036	      6.88214049	      6.58517770	    -15.07489227	      0.00000000	     -5.06225541	     -1.74110645	      2.71119987	     42.68895112	     -1.66780239	     13.67936182	    150.00035077	     98.96117136	      8.06316877	     -1.91345722	      4.95923352	     18.15456894	     58.45534704
      0.20000000	      5.94243020	     -1.94675772	     -6.00118270	     -4.20234830	      1.01827204	     -0.10297135	     -4.98590604	      0.09000699	     -3.97581137	     12.70800990	      9.23390209	    -16.75003768	      0.00000000	     -6.81893726	      2.68289790	      2.16230974	      6.88930521	      6.58547544	    -15.07912016	      0.00000000	     -5.06662727	     -1.74067925	      2.70428522	     42.69009846	     -1.66706329	     13.67945452	    150.00035077	     98.96069298	      8.07975362	     -1.92490360	      4.96044244	     18.15760125	     58.45562862
      0.21666670	      5.92246676	     -1.98983490	     -6.05838109	     -4.20199299	      1.02005771	     -0.10417798	     -4.64563462	      0.01830049	     -3.95441089	     13.30435321	      9.56368243	    -16.88383660	      0.00000000	     -6.53839871	      2.68534092	      1.56082056	      7.35529158	      6.37521186	    -15.20435477	      0.00000000	     -5.36798397	     -1.68966274	      2.37633875	     42.79168801	     -1.72598915	     13.68585542	    150.00035077	     98.92456650	      8.32589331	     -2.15327129	      5.18492815	     18.20851076	     58.50548005
      0.23333330	      5.38014271	     -1.96485559	     -6.24183571	     -4.20160099	      1.02029498	     -0.10497958	     -3.74953481	     -0.06828452	     -3.86988333	     13.84433005	      9.86716386	    -16.75396604	      0.00000000	     -5.88742349	      2.74064033	      1.46919547	      7.51698586	      6.12400428	    -15.51899803	      0.00000000	     -4.96161473	     -1.70992034	      2.04581943	     42.71668466	     -1.56971378	     14.32622043	    150.00035077	     98.72942950	      8.08941920	     -2.55459539	      7.06863075	     18.66880859	     58.96803300
      0.25000000	      5.36418271	     -2.03018228	     -6.38508687	     -4.20224100	      1.01964408	     -0.10589422	     -3.70651460	     -0.10610548	     -3.90299472	     13.83733699	      9.85797666	    -16.76320220	      0.00000000	     -5.89910219	      2.77162081	      1.44012768	      7.56046982	      6.09629319	    -15.52146676	      0.00000000	     -5.02527465	     -1.68869386	      1.92299436	     42.65115513	     -1.61507904	     14.32833527	    150.00035077	     98.72742101	      8.16716047	     -2.54343939	      7.09369790	     18.69339561	     58.97483642
      0.26666670	      5.39691041	     -2.15684796	     -6.46985624	     -4.20427792	      1.01935553	     -0.10695528	     -3.48089877	     -0.09244902	     -3.92206140	     14.19041084	      9.76881224	    -16.72899152	      0.00000000	     -5.79450264	      2.71277659	      1.16743185	      7.75430291	      5.91297237	    -15.59263649	      0.00000000	     -5.39484397	     -1.72066051	      1.55373813	     42.37348705	     -1.77420183	     14.38628391	    150.00035077	     98.71365130	      8.26010628	     -2.63989724	      7.27668327	     18.75297692	     59.02929948
      0.28333330	      5.38666751	     -2.23515213	     -6.64474654	     -4.20571150	      1.01998931	     -0.10795313	     -3.38153879	     -0.12528661	     -3.93204728	     14.19108392	      9.77512915	    -16.73349819	      0.00000000	     -5.75288297	      2.73561574	      1.17531629	      7.76061183	      5.88886028	    -15.58798923	      0.00000000	     -5.47645246	     -1.70808795	      1.45907661	     42.33156230	     -1.79847774	     14.39343677	    150.00035077	     98.71094478	      8.30694235	     -2.64263403	      7.31211704	     18.77515376	     59.04061539
      0.30000000	      4.89620702	     -2.20851315	     -6.79820486	     -4.20711331	      1.01961307	     -0.10928621	     -2.23039759	     -0.26466372	     -3.84703632	     15.14070313	      9.95164112	    -16.68777983	      0.00000000	     -4.94277832	      2.81625202	      1.29239746	      8.03672020	      5.44396883	    -16.37832150	      0.00000000	     -5.23200614	     -1.71007720	      1.08771811	     42.35132226	     -1.87313914	     15.26640745	    150.00035077	     98.14840570	      7.94483608	     -3.52504177	     12.72925593	     19.75710165	     60.75832386
      0.31666670	      4.88865438	     -2.34729013	     -6.88445293	     -4.20795547	      1.01836369	     -0.11047609	     -2.04400936	     -0.23036506	     -3.68009819	     15.37299327	      9.96396031	    -16.62794781	      0.00000000	     -4.88340210	      2.74556153	      1.16666583	      8.00702936	      5.42882305	    -16.39890713	      0.00000000	     -5.40902298	     -1.64529647	      0.85767206	     42.20533539	     -1.86097271	     15.23414365	    150.00035077	     98.13668136	      8.11450189	     -3.62070933	     12.76254643	     19.72261868	     60.76956230
